# xmcd CD database file
#
# Track frame offsets:
#	150
#	24780
#	41815
#	60122
#	70705
#
# Disc length: 1186 seconds
#
# Revision: 0
# Processed by: cddbd v1.5.2PL0 Copyright (c) Steve Scherf et al.
# Submitted via: jetAudio 7
#
DISCID=3104a005
DTITLE=アーティスト不明 - アルバム名 不明
DYEAR=1900
DGENRE=ジャンル不明
TTITLE0=トラック 1
TTITLE1=トラック 2
TTITLE2=トラック 3
TTITLE3=トラック 4
TTITLE4=トラック 5
EXTD=
EXTT0=
EXTT1=
EXTT2=
EXTT3=
EXTT4=
PLAYORDER=
